<?xml version="1.0" encoding="UTF-8" standalone="no"?>
<!-- Generator: Adobe Illustrator 18.1.0, SVG Export Plug-In . SVG Version: 6.00 Build 0)  -->

<svg
   xmlns:dc="http://purl.org/dc/elements/1.1/"
   xmlns:cc="http://creativecommons.org/ns#"
   xmlns:rdf="http://www.w3.org/1999/02/22-rdf-syntax-ns#"
   xmlns:svg="http://www.w3.org/2000/svg"
   xmlns="http://www.w3.org/2000/svg"
   xmlns:sodipodi="http://sodipodi.sourceforge.net/DTD/sodipodi-0.dtd"
   xmlns:inkscape="http://www.inkscape.org/namespaces/inkscape"
   version="1.1"
   id="Gopher"
   x="0px"
   y="0px"
   viewBox="0 0 215.6 281.6"
   enable-background="new 0 0 215.6 281.6"
   xml:space="preserve"
   inkscape:version="0.91 r13725"
   sodipodi:docname="logo.svg"><metadata
     id="metadata3510"><rdf:RDF><cc:Work
         rdf:about=""><dc:format>image/svg+xml</dc:format><dc:type
           rdf:resource="http://purl.org/dc/dcmitype/StillImage" /><dc:title></dc:title></cc:Work></rdf:RDF></metadata><defs
     id="defs3508" /><sodipodi:namedview
     pagecolor="#ffffff"
     bordercolor="#666666"
     borderopacity="1"
     objecttolerance="10"
     gridtolerance="10"
     guidetolerance="10"
     inkscape:pageopacity="0"
     inkscape:pageshadow="2"
     inkscape:window-width="1381"
     inkscape:window-height="870"
     id="namedview3506"
     showgrid="false"
     inkscape:zoom="0.7412997"
     inkscape:cx="-207.71431"
     inkscape:cy="359.70779"
     inkscape:window-x="214"
     inkscape:window-y="78"
     inkscape:window-maximized="0"
     inkscape:current-layer="Gopher" /><g
     id="g3768"
     transform="matrix(0.28142459,0,0,0.28142459,23.969919,39.167822)"
     style="fill:#93c5e7;fill-opacity:1"
     inkscape:export-xdpi="155.39"
     inkscape:export-ydpi="155.39"><g
       id="g3725"
       style="fill:#93c5e7;fill-opacity:1"><g
         id="_x33__13_"
         style="fill:#93c5e7;fill-opacity:1"><g
           id="g3728"
           style="fill:#93c5e7;fill-opacity:1"><path
             id="path3730"
             d="M 573.75,267.75 459,344.25 c 0,-23.218 -10.557,-43.758 -26.89,-57.796 38.881,-23.428 65.14,-65.637 65.14,-114.329 C 497.25,98.187 437.312,38.25 363.375,38.25 289.438,38.25 229.5,98.188 229.5,172.125 c 0,37.504 15.51,71.317 40.373,95.625 l -70.151,0 C 218.044,247.42 229.5,220.779 229.5,191.25 229.5,127.87 178.13,76.5 114.75,76.5 51.37,76.5 0,127.87 0,191.25 0,225.828 15.625,256.466 39.818,277.504 16.199,290.528 0,315.371 0,344.25 l 0,153 c 0,42.247 34.253,76.5 76.5,76.5 l 306,0 c 42.247,0 76.5,-34.253 76.5,-76.5 l 114.75,76.5 c 21.133,0 38.25,-17.117 38.25,-38.25 L 612,306 c 0,-21.133 -17.117,-38.25 -38.25,-38.25 z m -459,0 c -42.247,0 -76.5,-34.253 -76.5,-76.5 0,-42.247 34.253,-76.5 76.5,-76.5 42.247,0 76.5,34.253 76.5,76.5 0,42.247 -34.253,76.5 -76.5,76.5 z m 248.625,0.21 c -52.938,0 -95.835,-42.917 -95.835,-95.835 0,-52.938 42.917,-95.835 95.835,-95.835 52.918,0 95.835,42.897 95.835,95.835 0,52.938 -42.898,95.835 -95.835,95.835 z"
             inkscape:connector-curvature="0"
             style="fill:#93c5e7;fill-opacity:1" /></g></g></g><g
       id="g3732"
       style="fill:#93c5e7;fill-opacity:1" /><g
       id="g3734"
       style="fill:#93c5e7;fill-opacity:1" /><g
       id="g3736"
       style="fill:#93c5e7;fill-opacity:1" /><g
       id="g3738"
       style="fill:#93c5e7;fill-opacity:1" /><g
       id="g3740"
       style="fill:#93c5e7;fill-opacity:1" /><g
       id="g3742"
       style="fill:#93c5e7;fill-opacity:1" /><g
       id="g3744"
       style="fill:#93c5e7;fill-opacity:1" /><g
       id="g3746"
       style="fill:#93c5e7;fill-opacity:1" /><g
       id="g3748"
       style="fill:#93c5e7;fill-opacity:1" /><g
       id="g3750"
       style="fill:#93c5e7;fill-opacity:1" /><g
       id="g3752"
       style="fill:#93c5e7;fill-opacity:1" /><g
       id="g3754"
       style="fill:#93c5e7;fill-opacity:1" /><g
       id="g3756"
       style="fill:#93c5e7;fill-opacity:1" /><g
       id="g3758"
       style="fill:#93c5e7;fill-opacity:1" /><g
       id="g3760"
       style="fill:#93c5e7;fill-opacity:1" /></g><path
     d="m 123.07011,50.770944 c -42.250762,4.933471 -36.558295,48.955225 -20.23989,63.249646 30.35983,26.56485 61.98465,0 58.44267,-26.817853 -3.16248,-25.805855 -25.04685,-37.949785 -38.20278,-36.431793 z"
     id="path3472"
     inkscape:connector-curvature="0"
     style="fill:#f2f2f2"
     inkscape:export-xdpi="155.39"
     inkscape:export-ydpi="155.39" /><circle
     cx="125.97959"
     cy="88.720734"
     r="14.420918"
     id="circle3474"
     style="fill:#111212"
     inkscape:export-xdpi="155.39"
     inkscape:export-ydpi="155.39" /><circle
     cx="122.18462"
     cy="82.522263"
     r="4.5539742"
     id="circle3476"
     style="fill:#ffffff"
     inkscape:export-xdpi="155.39"
     inkscape:export-ydpi="155.39" /><path
     d="m 58.897395,62.410267 c 37.235366,4.347842 32.218627,43.143973 17.837302,55.741573 -26.755955,23.41146 -54.62674,0 -51.505215,-23.634429 2.898563,-22.742562 22.185149,-33.444944 33.667913,-32.107144 z"
     id="path3488"
     inkscape:connector-curvature="0"
     style="fill:#f2f2f2"
     inkscape:export-xdpi="155.39"
     inkscape:export-ydpi="155.39" /><circle
     cx="56.444775"
     cy="95.855217"
     r="12.709078"
     id="circle3490"
     style="fill:#111212"
     inkscape:export-xdpi="155.39"
     inkscape:export-ydpi="155.39" /><circle
     cx="59.789257"
     cy="90.39254"
     r="4.0133934"
     id="circle3492"
     style="fill:#ffffff"
     inkscape:export-xdpi="155.39"
     inkscape:export-ydpi="155.39" /><g
     id="g3478"
     transform="matrix(1.0506413,0,0,1.0506413,-21.737169,19.675048)"
     inkscape:export-xdpi="155.39"
     inkscape:export-ydpi="155.39"><path
       style="fill:#b8937f"
       inkscape:connector-curvature="0"
       id="path3480"
       d="m 108.5,107 c -16,2.4 -21.7,7 -20.5,14.2 2,11.8 39.7,10.5 40.9,0.6 1,-8.5 -14.1,-15.7 -20.4,-14.8 z" /><path
       inkscape:connector-curvature="0"
       id="path3482"
       d="m 98.2,111.8 c -2.7,9.8 21.7,8.3 21.1,2 -0.3,-3.7 -3.6,-8.4 -12.3,-8.2 -3.4,0.1 -7.6,1.6 -8.8,6.2 z" /><path
       style="fill:#e0dedc"
       inkscape:connector-curvature="0"
       id="path3484"
       d="m 99,127.7 c -0.9,0.4 -2.4,10.2 2.2,10.7 3.1,0.3 11.6,1.3 13.6,0 3.9,-2.5 3.5,-8.5 1.3,-10 C 112.4,126 100,127.2 99,127.7 Z" /></g></svg>